<?xml version="1.0" encoding="UTF-8"?>
<!-- Generated by Pixelmator Pro 3.3.1 -->
<svg width="174" height="26" viewBox="0 0 174 26" xmlns="http://www.w3.org/2000/svg" xmlns:xlink="http://www.w3.org/1999/xlink">
    <text id="Silo" xml:space="preserve" x="72" y="22" text-anchor="middle" font-family="Roboto" font-size="27" font-weight="700" fill="#11142d" letter-spacing="2.7">Silo</text>
    <path id="Trazado" fill="#615dff" stroke="none" d="M 20.1369 26 C 22.8983 26 25.1842 23.7425 24.673201 21.028799 C 24.3528 19.3274 23.867901 17.659401 23.223499 16.0502 C 21.960199 12.8958 20.1087 10.0295 17.7745 7.615219 C 15.4403 5.200901 12.6692 3.285749 9.61949 1.97913 C 8.11383 1.334061 6.55481 0.843538 4.96489 0.512196 C 2.26154 -0.051182 0 2.238581 0 5 L 0 21 C 0 23.7614 2.23858 26 5 26 L 20.1369 26 Z"/>
    <g id="Agrupar" style="mix-blend-mode:multiply">
        <path id="path1" fill="#3dd9eb" stroke="none" d="M 13.7013 26 C 10.9399 26 8.65395 23.7425 9.16502 21.028799 C 9.48544 19.3274 9.97031 17.659401 10.6147 16.0502 C 11.878 12.8958 13.7295 10.0295 16.0637 7.615219 C 18.3979 5.200901 21.169001 3.285749 24.2187 1.97913 C 25.7244 1.334061 27.2834 0.843538 28.873301 0.512196 C 31.5767 -0.051182 33.8382 2.238581 33.8382 5 L 33.8382 21 C 33.8382 23.7614 31.5996 26 28.8382 26 L 13.7013 26 Z"/>
    </g>
</svg>
